<svg xmlns="http://www.w3.org/2000/svg" xmlns:xlink="http://www.w3.org/1999/xlink" version="1.1" id="Capa_1" x="0px" y="0px" viewBox="0 0 458.4 458.4" style="enable-background:new 0 0 358.4 358.4;" xml:space="preserve"><path class="stroke-current" d="M345.135,12.4c-7.2-8-17.6-12.4-28.4-12.4s-21.2,4.4-28.8,12c-7.6,7.6-12,18-12,28.8c0,8.8,2.8,17.2,8,24.4l-14.4,14.4    c-18.4-16.4-42-25.6-66.8-25.6c-27.2,0-52.4,10.4-71.6,29.6c-14.8,14.8-24.4,33.2-28,53.6l-20-2.4c-0.4-8.8-3.2-17.2-8.8-24    c-6.8-8.4-16.4-14-27.2-15.2c-22.8-2.8-42.8,13.6-45.6,35.6c-1.2,10.8,1.6,21.6,8.4,30c6.8,8.4,16.4,14,27.2,15.2    c1.6,0,3.2,0.4,4.8,0.4c18.4,0,34.4-12.4,39.2-30l20,2.4c0,2-0.4,4-0.4,6c0,27.2,10.4,52.4,29.6,71.6    c19.2,19.2,44.4,29.6,71.6,29.6c2.4,0,5.2,0,7.6-0.4l2.8,22c-19.2,5.2-32.4,24-29.6,44.4c2.4,20.4,20,36,40.4,36    c1.6,0,3.2,0,4.8-0.4c10.8-1.2,20.4-6.8,27.2-15.2c6.8-8.4,9.6-19.2,8.4-30c-2.4-20-19.2-35.2-39.2-36l-2.8-22    c19.6-4,37.6-13.2,52-27.6c19.2-19.2,29.6-44.4,29.6-71.6c0-24.8-9.2-48.4-25.6-67.2l14.4-14.4c6.8,5.2,15.6,8,24.4,8    c10.8,0,21.2-4.4,28.8-12C361.135,54,361.135,28,345.135,12.4z M70.735,140c-1.6,15.2-15.6,26.8-32,24.8    c-7.6-0.8-14.4-4.8-19.2-10.8s-6.8-13.6-6-21.2c1.6-14.4,14-25.2,28.4-25.2c1.2,0,2.4,0,3.6,0.4c7.6,0.8,14.4,4.8,19.2,10.8    S71.535,132.4,70.735,140z M139.535,92.4c16.8-16.8,39.2-26,62.8-26c21.6,0,42.4,8,58.4,22l-23.2,23.2c-10-8-22.4-12.4-35.2-12.4    c-14.8,0-29.2,6-39.6,16.4c-7.6,7.6-12.8,16.8-14.8,27.2l-32.8-4C118.335,121.2,126.735,105.2,139.535,92.4z M202.735,244.4    c-23.6,0-46-9.2-62.8-26s-26-39.2-26-62.8c0-1.6,0-3.2,0.4-4.4l32.8,4c0,0.4,0,0.4,0,0.8c0,15.2,6,29.2,16.4,39.6    c10.8,10.8,24.8,16.4,39.6,16.4c0.8,0,1.6,0,2.4,0l4,32.8C206.735,244,204.735,244.4,202.735,244.4z M202.735,199.2    c-11.6,0-22.8-4.4-31.2-12.8c-8.4-8.4-12.8-19.6-12.8-31.2s4.4-22.8,12.8-31.2c8.4-8.4,19.2-12.8,31.2-12.8    c11.6,0,22.8,4.4,31.2,12.8c17.2,17.2,17.2,45.2,0,62.4C225.535,194.8,214.335,199.2,202.735,199.2z M223.935,288.4    c14.4,0,26.4,11.2,28.4,25.6c0.8,7.6-1.2,15.2-6,21.2s-11.6,10-19.2,10.8c-16,2-30-9.6-32-25.2c-2-15.6,9.2-30,25.2-32    C221.535,288.8,222.735,288.4,223.935,288.4z M291.535,155.2c0,23.6-9.2,46-26,62.8c-12.4,12.4-28,20.8-44.8,24.4l-4-32.8    c9.6-2.4,18.4-7.6,25.6-14.4c20.4-20.4,21.6-52.8,4-74.8l23.2-23.2C283.935,112.8,291.535,133.6,291.535,155.2z M337.135,61.6    c-5.6,5.6-12.8,8.4-20.4,8.4c-7.6,0-14.8-2.8-20.4-8.4c-5.6-5.6-8.4-12.8-8.4-20.4c0-7.6,2.8-14.8,8.4-20.4    c5.6-5.6,12.8-8.4,20.4-8.4c7.6,0,14.8,2.8,20.4,8.4C348.335,32,348.335,50.4,337.135,61.6z"/></svg>